<?xml version="1.0" standalone="no"?>
<!DOCTYPE svg PUBLIC "-//W3C//DTD SVG 20010904//EN"
 "http://www.w3.org/TR/2001/REC-SVG-20010904/DTD/svg10.dtd">
<svg version="1.0" xmlns="http://www.w3.org/2000/svg"
 width="100.000000pt" height="100.000000pt" viewBox="0 0 100.000000 100.000000"
 preserveAspectRatio="xMidYMid meet">
<metadata>
Created by potrace 1.11, written by Peter Selinger 2001-2013
</metadata>
<g transform="translate(0.000000,100.000000) scale(0.100000,-0.100000)"
fill="#000000" stroke="none">
<path d="M479 974 c-2 -11 -4 -203 -4 -428 1 -307 4 -411 13 -414 14 -4 16
-82 2 -82 -5 0 -10 -9 -10 -19 0 -18 9 -20 106 -23 58 -2 109 1 115 7 5 5 9
23 9 41 0 42 21 57 86 61 96 5 113 25 117 135 2 59 7 79 27 106 l24 33 -32
157 c-21 101 -43 179 -62 217 -60 124 -185 211 -319 222 -61 5 -68 4 -72 -13z"/>
<path d="M330 917 c-48 -24 -52 -104 -7 -128 36 -20 63 -18 91 5 38 30 39 81
2 113 -31 26 -50 28 -86 10z"/>
<path d="M115 798 c-56 -49 -26 -128 51 -129 31 -1 47 -9 80 -41 40 -38 41
-39 107 -35 72 4 83 8 74 32 -5 11 -22 15 -70 15 -57 0 -66 3 -92 30 -22 23
-29 39 -27 64 6 69 -70 109 -123 64z"/>
<path d="M46 558 c-39 -33 -39 -83 -1 -116 34 -29 80 -25 109 11 17 20 27 22
138 23 74 1 124 6 131 13 24 24 -11 33 -131 35 -111 1 -121 3 -138 23 -29 35
-75 40 -108 11z"/>
<path d="M244 368 c-24 -22 -51 -39 -61 -38 -58 6 -93 -21 -93 -74 0 -40 37
-76 77 -76 37 0 75 44 72 83 -2 25 4 40 29 65 28 29 37 32 92 32 45 0 62 4 67
15 9 25 -3 30 -75 31 -64 1 -68 -1 -108 -38z"/>
<path d="M331 216 c-46 -26 -54 -84 -16 -121 30 -31 66 -32 101 -2 68 59 -8
167 -85 123z"/>
</g>
</svg>
