<?xml version="1.0" standalone="no"?>
<!DOCTYPE svg PUBLIC "-//W3C//DTD SVG 20010904//EN"
 "http://www.w3.org/TR/2001/REC-SVG-20010904/DTD/svg10.dtd">
<svg version="1.0" xmlns="http://www.w3.org/2000/svg"
 width="180.000000pt" height="180.000000pt" viewBox="0 0 180.000000 180.000000"
 preserveAspectRatio="xMidYMid meet">
<metadata>
Created by potrace 1.11, written by Peter Selinger 2001-2013
</metadata>
<g transform="translate(0.000000,180.000000) scale(0.100000,-0.100000)"
fill="#000000" stroke="none">
<path d="M751 1759 c-24 -5 -68 -15 -97 -24 -30 -9 -56 -15 -59 -15 -15 0
-184 -95 -224 -126 -160 -128 -262 -284 -316 -486 -21 -80 -24 -108 -21 -222
3 -135 4 -140 32 -235 74 -254 281 -477 528 -568 155 -57 389 -68 531 -25 39
12 75 22 80 23 25 4 182 92 224 125 159 126 270 298 321 497 28 113 22 323
-13 440 -97 318 -342 543 -667 612 -70 15 -249 17 -319 4z m97 -77 c-30 -30
-34 -31 -45 -15 -20 27 -15 41 15 45 62 7 63 5 30 -30z m208 -39 c23 -34 50
-83 60 -110 9 -26 19 -50 21 -52 1 -2 21 8 44 23 22 15 47 25 55 22 33 -13 54
-87 54 -192 0 -56 -3 -115 -6 -132 l-6 -30 -34 20 c-32 19 -34 23 -34 74 0 53
0 54 -30 54 -25 0 -30 -4 -30 -25 0 -14 -4 -25 -10 -25 -22 0 -67 27 -92 55
l-28 31 -65 -32 c-74 -35 -150 -54 -242 -58 l-63 -3 0 28 c0 26 -4 29 -30 29
-30 0 -30 -1 -30 -53 0 -51 -2 -55 -39 -79 l-39 -25 -11 56 c-6 31 -14 96 -17
145 -5 79 -3 88 11 82 54 -20 62 -19 69 16 13 72 76 154 148 193 24 13 27 13
32 -3 8 -23 59 -82 71 -82 6 0 29 22 52 49 39 46 116 95 138 88 6 -2 29 -31
51 -64z m105 28 c324 -111 546 -415 552 -751 2 -155 -16 -235 -84 -375 -27
-55 -63 -116 -79 -135 l-29 -35 -1 45 c-2 61 -19 103 -58 144 -40 43 -68 53
-292 108 l-95 24 -3 42 c-3 37 1 45 33 73 20 18 47 51 61 75 14 24 30 44 36
44 5 0 25 7 43 16 38 18 65 53 71 92 2 15 6 36 8 47 13 59 21 153 21 255 0
106 -2 119 -27 167 -15 29 -38 65 -52 79 l-24 27 -30 -22 c-17 -11 -34 -21
-39 -21 -4 0 -23 27 -41 60 -18 33 -31 60 -29 60 2 0 28 -8 58 -19z m-573 -43
c-16 -17 -40 -53 -54 -79 l-24 -48 -41 14 c-23 8 -44 15 -47 15 -5 0 5 -220
12 -256 2 -12 7 -39 11 -60 12 -76 46 -207 60 -228 12 -19 76 -63 83 -58 10 8
24 -4 46 -42 14 -24 41 -57 61 -75 32 -28 36 -36 33 -73 l-3 -42 -148 -37
c-81 -20 -161 -42 -178 -49 -71 -30 -119 -108 -119 -196 l-1 -39 -29 35 c-47
56 -118 207 -141 300 -29 116 -29 275 0 385 62 232 201 410 411 524 90 49 108
51 68 9z m452 -373 c19 -14 52 -31 72 -37 l38 -11 0 -111 c0 -96 -3 -118 -24
-161 -29 -61 -66 -97 -129 -125 -88 -39 -213 -14 -279 56 -58 62 -74 136 -69
310 l1 31 93 6 c85 5 207 36 232 58 15 14 29 11 65 -16z m-450 -185 c0 -67 -2
-78 -15 -73 -23 8 -45 57 -38 84 5 21 40 69 50 69 2 0 3 -36 3 -80z m673 10
c5 -27 -19 -76 -40 -84 -10 -4 -13 13 -13 77 l0 82 25 -25 c13 -14 26 -36 28
-50z m-373 -345 c30 0 70 3 88 7 31 7 32 6 32 -23 0 -30 -24 -58 -88 -101 -25
-16 -26 -16 -79 25 -45 36 -53 47 -53 75 0 30 2 33 23 26 12 -5 47 -8 77 -9z
m-90 -129 c23 -18 42 -37 42 -41 0 -9 -84 -66 -90 -61 -2 2 -6 28 -8 57 -3 30
-7 60 -9 67 -8 22 21 13 65 -22z m260 -16 c-3 -27 -6 -59 -5 -70 1 -11 -1 -20
-3 -20 -6 0 -102 61 -102 65 0 7 95 75 105 75 8 0 9 -15 5 -50z m115 -3 c-2
-12 -6 -49 -9 -82 -13 -142 -37 -371 -41 -383 -2 -6 -16 -12 -29 -12 -18 0
-24 5 -22 17 2 10 7 58 11 108 4 50 9 98 11 108 2 10 6 59 10 110 4 51 8 103
10 117 1 14 3 33 3 42 1 14 5 15 31 7 23 -9 29 -16 25 -32z m-494 11 c0 -13 2
-32 4 -43 2 -11 7 -56 10 -100 4 -44 8 -96 10 -115 2 -19 7 -71 11 -114 3 -44
7 -90 9 -102 2 -19 -1 -21 -24 -15 -28 8 -33 25 -47 181 -3 41 -12 129 -19
195 -12 125 -10 135 28 135 11 0 17 -8 18 -22z m-110 -20 c1 -31 9 -113 24
-253 2 -22 7 -73 10 -113 l7 -73 -37 15 c-21 9 -38 16 -39 16 -1 0 -2 55 -2
123 l1 122 -27 3 -28 3 0 -106 c0 -123 2 -122 -86 -52 l-53 42 -1 77 c0 42 4
88 9 101 16 41 56 73 107 86 27 7 60 17 74 21 38 13 40 12 41 -12z m801 -17
c31 -12 67 -48 79 -78 14 -37 11 -172 -3 -187 -25 -24 -111 -86 -119 -86 -5 0
-9 47 -9 105 l0 105 -28 0 -27 0 1 -112 c0 -62 -2 -119 -4 -126 -4 -11 -52
-42 -67 -42 -5 0 1 109 10 179 1 14 6 62 11 106 4 44 8 85 9 90 1 6 3 26 3 46
l2 36 60 -13 c33 -8 70 -18 82 -23z m-327 -154 c-5 -30 -13 -115 -21 -220 -3
-48 -11 -90 -17 -94 -16 -10 -207 -7 -217 3 -7 8 -14 63 -25 229 -3 39 -8 77
-10 86 -4 11 17 31 70 66 l75 51 74 -49 c60 -40 74 -54 71 -72z"/>
<path d="M1240 815 c0 -84 0 -85 25 -85 27 0 27 0 27 95 0 74 0 75 -27 75 -25
0 -25 -1 -25 -85z"/>
<path d="M1350 814 l0 -85 28 3 c27 3 27 3 28 86 l2 82 -29 0 -29 0 0 -86z"/>
<path d="M1460 871 c0 -19 6 -30 18 -33 29 -8 42 2 42 33 0 26 -4 29 -30 29
-26 0 -30 -3 -30 -29z"/>
<path d="M1575 815 l-1 -85 28 0 28 0 0 85 0 85 -28 0 -27 0 0 -85z"/>
<path d="M1460 763 c0 -30 3 -33 31 -33 28 0 30 2 27 32 -3 27 -7 32 -30 33
-25 2 -28 -1 -28 -32z"/>
<path d="M170 815 c0 -84 0 -85 25 -85 29 0 27 -6 29 93 l1 77 -27 0 -28 0 0
-85z"/>
<path d="M280 871 c0 -31 13 -41 43 -33 11 3 17 14 17 33 0 26 -4 29 -30 29
-26 0 -30 -3 -30 -29z"/>
<path d="M392 815 l0 -85 29 0 29 0 0 85 0 85 -28 0 -29 0 -1 -85z"/>
<path d="M508 893 c-3 -7 -2 -114 1 -150 1 -7 12 -13 26 -13 25 0 25 1 25 85
0 83 0 85 -24 85 -14 0 -26 -3 -28 -7z"/>
<path d="M284 791 c-2 -2 -4 -17 -4 -33 0 -24 4 -28 30 -28 27 0 30 3 30 33 0
28 -3 32 -26 32 -14 0 -28 -2 -30 -4z"/>
<path d="M734 1165 c-10 -24 14 -47 37 -34 23 12 25 35 3 43 -24 9 -34 7 -40
-9z"/>
<path d="M1016 1163 c-10 -26 23 -48 42 -29 8 8 12 22 9 30 -8 21 -43 20 -51
-1z"/>
<path d="M800 980 c-22 -14 -1 -60 40 -88 47 -32 103 -24 143 18 25 28 37 69
20 71 -5 0 -16 2 -25 4 -10 2 -20 -5 -23 -16 -15 -46 -80 -48 -109 -4 -18 27
-24 29 -46 15z"/>
</g>
</svg>
